# xmcd CD database file
# Copyright (C) 1993-1998 Ti Kan
# 
# Track frame offsets:
#     150
#     18427
#     31765
#     48990
#     74912
#     90047
#     113147
#     131750
#     148010
#     161675
#     171650
#     199577
# 
# Disc length: 3025 seconds
# 
# Revision: 1
# Processed by: cddbd v1.4b41PL1 Copyright (c) Steve Scherf et al.
# Submitted via: DiscPlay 4.0.4
# 
DISCID=a60bcf0c
DTITLE=Dave Howard and the High Rollers - Ride Past Midnight
DYEAR=1900
DGENRE=
TTITLE0=Good to Go
TTITLE1=Marie Marie
TTITLE2=Sweet Petite
TTITLE3=Ride Past Midnight
TTITLE4=Drives Me Wild
TTITLE5=Dirty Word Called Time
TTITLE6=Sucker For A Love Song
TTITLE7=Payday
TTITLE8=Too Hip To Be Humble
TTITLE9=You Ain't Nothin But Fine
TTITLE10=Cut You Loose
TTITLE11=Wray-Gunn
EXTD=
EXTT0=
EXTT1=
EXTT2=
EXTT3=
EXTT4=
EXTT5=
EXTT6=
EXTT7=
EXTT8=
EXTT9=
EXTT10=
EXTT11=
PLAYORDER=
